<?xml version="1.0" encoding="UTF-8" standalone="no"?>
<!-- Created with Inkscape (http://www.inkscape.org/) -->

<svg
   xmlns:dc="http://purl.org/dc/elements/1.1/"
   xmlns:cc="http://creativecommons.org/ns#"
   xmlns:rdf="http://www.w3.org/1999/02/22-rdf-syntax-ns#"
   xmlns:svg="http://www.w3.org/2000/svg"
   xmlns="http://www.w3.org/2000/svg"
   xmlns:sodipodi="http://sodipodi.sourceforge.net/DTD/sodipodi-0.dtd"
   xmlns:inkscape="http://www.inkscape.org/namespaces/inkscape"
   width="93.982811mm"
   height="23.473619mm"
   viewBox="0 0 93.982811 23.473619"
   version="1.1"
   id="svg8"
   inkscape:version="0.92.4 (5da689c313, 2019-01-14)"
   sodipodi:docname="logo.svg">
  <defs
     id="defs2" />
  <sodipodi:namedview
     id="base"
     pagecolor="#ffffff"
     bordercolor="#666666"
     borderopacity="1.0"
     inkscape:pageopacity="0.0"
     inkscape:pageshadow="2"
     inkscape:zoom="0.88"
     inkscape:cx="-710.19128"
     inkscape:cy="22.911066"
     inkscape:document-units="mm"
     inkscape:current-layer="layer1"
     showgrid="false"
     fit-margin-top="1"
     fit-margin-left="0"
     fit-margin-right="0"
     fit-margin-bottom="1"
     inkscape:window-width="3000"
     inkscape:window-height="1875"
     inkscape:window-x="-13"
     inkscape:window-y="-13"
     inkscape:window-maximized="1" />
  <metadata
     id="metadata5">
    <rdf:RDF>
      <cc:Work
         rdf:about="">
        <dc:format>image/svg+xml</dc:format>
        <dc:type
           rdf:resource="http://purl.org/dc/dcmitype/StillImage" />
        <dc:title></dc:title>
      </cc:Work>
    </rdf:RDF>
  </metadata>
  <g
     inkscape:label="Layer 1"
     inkscape:groupmode="layer"
     id="layer1"
     transform="translate(-57.854548,-131.4216)">
    <g
       aria-label="Computational Social Science Lab"
       style="font-style:normal;font-variant:normal;font-weight:bold;font-stretch:normal;font-size:10.58333302px;line-height:1.25;font-family:Graphik;-inkscape-font-specification:'Graphik Bold';letter-spacing:0px;word-spacing:0px;fill:#000000;fill-opacity:1;stroke:none;stroke-width:0.26458332"
       id="text12">
      <path
         d="m 61.632798,140.62369 q -1.756834,0 -2.7305,-1.03717 -0.963084,-1.03717 -0.963084,-2.80458 v -0.0847 q 0,-1.69333 1.037167,-2.77283 1.04775,-1.09009 2.63525,-1.09009 1.354667,0 2.233083,0.67734 0.889,0.67733 1.016,1.9685 h -1.42875 q -0.243416,-1.524 -1.80975,-1.524 -1.005416,0 -1.608666,0.74083 -0.592667,0.73025 -0.592667,1.98967 v 0.0847 q 0,1.28059 0.582083,2.00025 0.582084,0.70909 1.629834,0.70909 0.804333,0 1.312333,-0.40217 0.518583,-0.41275 0.624417,-1.19592 h 1.375833 q -0.15875,1.3335 -1.04775,2.04259 -0.878417,0.6985 -2.264833,0.6985 z"
         style="font-style:normal;font-variant:normal;font-weight:500;font-stretch:normal;font-family:Graphik;-inkscape-font-specification:'Graphik Medium';fill:#164c9c;fill-opacity:1;stroke-width:0.26458332"
         id="path817"
         inkscape:connector-curvature="0" />
      <path
         d="m 68.525028,139.62885 q 0.709083,0 1.11125,-0.48683 0.41275,-0.49742 0.41275,-1.35467 v -0.0741 q 0,-0.85725 -0.41275,-1.34408 -0.402167,-0.49742 -1.11125,-0.49742 -0.719667,0 -1.132417,0.48683 -0.402166,0.48684 -0.402166,1.34409 v 0.0847 q 0,0.85725 0.402166,1.35467 0.41275,0.48683 1.132417,0.48683 z m 2.032,0.21167 q -0.804333,0.78317 -2.042583,0.78317 -1.23825,0 -2.042584,-0.78317 -0.79375,-0.78317 -0.79375,-2.032 v -0.0847 q 0,-1.27 0.804334,-2.06375 0.804333,-0.79375 2.042583,-0.79375 1.227667,0 2.032,0.78317 0.804333,0.78317 0.804333,2.04258 v 0.0847 q 0,1.28058 -0.804333,2.06375 z"
         style="font-style:normal;font-variant:normal;font-weight:500;font-stretch:normal;font-family:Graphik;-inkscape-font-specification:'Graphik Medium';fill:#164c9c;fill-opacity:1;stroke-width:0.26458332"
         id="path819"
         inkscape:connector-curvature="0" />
      <path
         d="m 72.518417,140.51785 v -5.53508 h 1.280584 v 0.84667 q 0.211666,-0.41275 0.656166,-0.68792 0.4445,-0.27517 1.026583,-0.27517 1.164167,0 1.566334,0.99484 0.306916,-0.48684 0.814916,-0.74084 0.508,-0.254 1.058334,-0.254 0.814916,0 1.322916,0.53975 0.518584,0.52917 0.518584,1.60867 v 3.50308 H 79.48225 v -3.41841 q 0,-1.16417 -0.98425,-1.16417 -0.508,0 -0.867833,0.33867 -0.34925,0.32808 -0.34925,0.93133 v 3.31258 h -1.280583 v -3.41841 q 0,-1.16417 -0.98425,-1.16417 -0.508,0 -0.867833,0.33867 -0.34925,0.32808 -0.34925,0.93133 v 3.31258 z"
         style="font-style:normal;font-variant:normal;font-weight:500;font-stretch:normal;font-family:Graphik;-inkscape-font-specification:'Graphik Medium';fill:#164c9c;fill-opacity:1;stroke-width:0.26458332"
         id="path821"
         inkscape:connector-curvature="0" />
      <path
         d="m 82.233586,142.41227 v -7.4295 h 1.280583 v 0.889 q 0.243417,-0.42333 0.73025,-0.70908 0.497417,-0.29634 1.0795,-0.29634 1.068917,0 1.756834,0.762 0.6985,0.75142 0.6985,2.05317 v 0.0847 q 0,1.31233 -0.687917,2.08491 -0.677333,0.77259 -1.767417,0.77259 -0.624416,0 -1.100666,-0.26459 -0.47625,-0.27516 -0.709084,-0.70908 v 2.76225 z m 2.772833,-2.80458 q 0.709084,0 1.0795,-0.46567 0.381,-0.46567 0.381,-1.35467 v -0.0847 q 0,-0.889 -0.41275,-1.35467 -0.402166,-0.47625 -1.058333,-0.47625 -0.687917,0 -1.11125,0.47625 -0.41275,0.46567 -0.41275,1.35467 v 0.0847 q 0,0.89959 0.402167,1.36525 0.41275,0.45509 1.132416,0.45509 z"
         style="font-style:normal;font-variant:normal;font-weight:500;font-stretch:normal;font-family:Graphik;-inkscape-font-specification:'Graphik Medium';fill:#164c9c;fill-opacity:1;stroke-width:0.26458332"
         id="path823"
         inkscape:connector-curvature="0" />
      <path
         d="m 90.782935,140.62369 q -0.867833,0 -1.386417,-0.51859 -0.518583,-0.51858 -0.518583,-1.57691 v -3.54542 h 1.280583 v 3.39725 q 0,0.62442 0.264584,0.92075 0.264583,0.29633 0.8255,0.29633 0.550333,0 0.92075,-0.34925 0.370416,-0.34925 0.370416,-0.97366 v -3.29142 h 1.280584 v 5.53508 h -1.280584 v -0.86783 q -0.22225,0.43392 -0.677333,0.70908 -0.4445,0.26459 -1.0795,0.26459 z"
         style="font-style:normal;font-variant:normal;font-weight:500;font-stretch:normal;font-family:Graphik;-inkscape-font-specification:'Graphik Medium';fill:#164c9c;fill-opacity:1;stroke-width:0.26458332"
         id="path825"
         inkscape:connector-curvature="0" />
      <path
         d="m 97.222562,140.6131 q -0.814917,0 -1.248833,-0.42333 -0.423334,-0.42333 -0.423334,-1.21708 v -3.02684 h -0.740833 v -0.96308 h 0.740833 v -1.21708 h 1.280584 v 1.21708 h 1.217083 v 0.96308 h -1.217083 v 2.91042 q 0,0.70908 0.635,0.70908 0.370416,0 0.624416,-0.10583 v 1.016 q -0.370416,0.13758 -0.867833,0.13758 z"
         style="font-style:normal;font-variant:normal;font-weight:500;font-stretch:normal;font-family:Graphik;-inkscape-font-specification:'Graphik Medium';fill:#164c9c;fill-opacity:1;stroke-width:0.26458332"
         id="path827"
         inkscape:connector-curvature="0" />
      <path
         d="m 100.7574,140.62369 q -0.814921,0 -1.333505,-0.40217 -0.518583,-0.41275 -0.518583,-1.23825 0,-0.91017 0.772583,-1.3335 0.772585,-0.42333 2.063755,-0.42333 h 0.68791 v -0.28575 q 0,-0.5715 -0.23283,-0.83609 -0.22225,-0.27516 -0.77258,-0.27516 -0.96309,0 -1.05834,0.86783 h -1.238248 q 0.07408,-0.92075 0.719667,-1.37583 0.656171,-0.45509 1.651001,-0.45509 2.21192,0 2.21192,2.02142 v 3.63008 h -1.25942 v -0.67733 q -0.59267,0.78317 -1.69333,0.78317 z m 0.30691,-0.92075 q 0.60325,0 0.98425,-0.29634 0.381,-0.30691 0.381,-0.8255 v -0.55033 h -0.65616 q -1.59809,0 -1.59809,0.89958 0,0.77259 0.889,0.77259 z"
         style="font-style:normal;font-variant:normal;font-weight:500;font-stretch:normal;font-family:Graphik;-inkscape-font-specification:'Graphik Medium';fill:#164c9c;fill-opacity:1;stroke-width:0.26458332"
         id="path829"
         inkscape:connector-curvature="0" />
      <path
         d="m 107.06175,140.6131 q -0.81491,0 -1.24883,-0.42333 -0.42333,-0.42333 -0.42333,-1.21708 v -3.02684 h -0.74084 v -0.96308 h 0.74084 v -1.21708 h 1.28058 v 1.21708 h 1.21708 v 0.96308 h -1.21708 v 2.91042 q 0,0.70908 0.635,0.70908 0.37042,0 0.62442,-0.10583 v 1.016 q -0.37042,0.13758 -0.86784,0.13758 z"
         style="font-style:normal;font-variant:normal;font-weight:500;font-stretch:normal;font-family:Graphik;-inkscape-font-specification:'Graphik Medium';fill:#164c9c;fill-opacity:1;stroke-width:0.26458332"
         id="path831"
         inkscape:connector-curvature="0" />
      <path
         d="m 109.11641,140.51785 v -5.53508 h 1.28058 v 5.53508 z m 1.16417,-6.65691 q -0.22225,0.21166 -0.53975,0.21166 -0.3175,0 -0.53975,-0.21166 -0.22225,-0.21167 -0.22225,-0.51859 0,-0.3175 0.22225,-0.52916 0.22225,-0.21167 0.53975,-0.21167 0.3175,0 0.53975,0.21167 0.22225,0.21166 0.22225,0.52916 0,0.30692 -0.22225,0.51859 z"
         style="font-style:normal;font-variant:normal;font-weight:500;font-stretch:normal;font-family:Graphik;-inkscape-font-specification:'Graphik Medium';fill:#164c9c;fill-opacity:1;stroke-width:0.26458332"
         id="path833"
         inkscape:connector-curvature="0" />
      <path
         d="m 114.43437,139.62885 q 0.70908,0 1.11125,-0.48683 0.41275,-0.49742 0.41275,-1.35467 v -0.0741 q 0,-0.85725 -0.41275,-1.34408 -0.40217,-0.49742 -1.11125,-0.49742 -0.71967,0 -1.13242,0.48683 -0.40216,0.48684 -0.40216,1.34409 v 0.0847 q 0,0.85725 0.40216,1.35467 0.41275,0.48683 1.13242,0.48683 z m 2.032,0.21167 q -0.80433,0.78317 -2.04258,0.78317 -1.23825,0 -2.04259,-0.78317 -0.79375,-0.78317 -0.79375,-2.032 v -0.0847 q 0,-1.27 0.80434,-2.06375 0.80433,-0.79375 2.04258,-0.79375 1.22767,0 2.032,0.78317 0.80433,0.78317 0.80433,2.04258 v 0.0847 q 0,1.28058 -0.80433,2.06375 z"
         style="font-style:normal;font-variant:normal;font-weight:500;font-stretch:normal;font-family:Graphik;-inkscape-font-specification:'Graphik Medium';fill:#164c9c;fill-opacity:1;stroke-width:0.26458332"
         id="path835"
         inkscape:connector-curvature="0" />
      <path
         d="m 118.42776,140.51785 v -5.53508 h 1.28058 v 0.87842 q 0.21167,-0.43392 0.67734,-0.70909 0.46566,-0.28575 1.11125,-0.28575 0.87841,0 1.38641,0.53975 0.508,0.52917 0.508,1.62984 v 3.48191 h -1.28058 v -3.3655 q 0,-0.62441 -0.26458,-0.92075 -0.26459,-0.29633 -0.83609,-0.29633 -0.5715,0 -0.94191,0.34925 -0.35984,0.33867 -0.35984,0.97367 v 3.25966 z"
         style="font-style:normal;font-variant:normal;font-weight:500;font-stretch:normal;font-family:Graphik;-inkscape-font-specification:'Graphik Medium';fill:#164c9c;fill-opacity:1;stroke-width:0.26458332"
         id="path837"
         inkscape:connector-curvature="0" />
      <path
         d="m 126.30622,140.62369 q -0.81492,0 -1.3335,-0.40217 -0.51858,-0.41275 -0.51858,-1.23825 0,-0.91017 0.77258,-1.3335 0.77258,-0.42333 2.06375,-0.42333 h 0.68792 v -0.28575 q 0,-0.5715 -0.23284,-0.83609 -0.22225,-0.27516 -0.77258,-0.27516 -0.96308,0 -1.05833,0.86783 h -1.23825 q 0.0741,-0.92075 0.71966,-1.37583 0.65617,-0.45509 1.651,-0.45509 2.21192,0 2.21192,2.02142 v 3.63008 h -1.25942 v -0.67733 q -0.59266,0.78317 -1.69333,0.78317 z m 0.30692,-0.92075 q 0.60325,0 0.98425,-0.29634 0.381,-0.30691 0.381,-0.8255 v -0.55033 h -0.65617 q -1.59808,0 -1.59808,0.89958 0,0.77259 0.889,0.77259 z"
         style="font-style:normal;font-variant:normal;font-weight:500;font-stretch:normal;font-family:Graphik;-inkscape-font-specification:'Graphik Medium';fill:#164c9c;fill-opacity:1;stroke-width:0.26458332"
         id="path839"
         inkscape:connector-curvature="0" />
      <path
         d="m 130.7585,140.51785 v -8.09625 h 1.28058 v 8.09625 z"
         style="font-style:normal;font-variant:normal;font-weight:500;font-stretch:normal;font-family:Graphik;-inkscape-font-specification:'Graphik Medium';fill:#164c9c;fill-opacity:1;stroke-width:0.26458332"
         id="path841"
         inkscape:connector-curvature="0" />
      <path
         d="m 60.891964,153.89519 q -1.481666,0 -2.2225,-0.65617 -0.73025,-0.65617 -0.814916,-1.79917 h 1.354666 q 0.08467,0.66675 0.4445,1.03717 0.359834,0.35983 1.23825,0.35983 0.635,0 1.026584,-0.3175 0.402166,-0.32808 0.402166,-0.84666 0,-0.52917 -0.328083,-0.77259 -0.328083,-0.24341 -1.248833,-0.39158 -1.407584,-0.1905 -2.042584,-0.67733 -0.624416,-0.49742 -0.624416,-1.53459 0,-0.94191 0.73025,-1.55575 0.73025,-0.61383 1.905,-0.61383 1.227666,0 1.93675,0.56092 0.709083,0.55033 0.814916,1.62983 h -1.291166 q -0.105834,-0.59267 -0.455084,-0.85725 -0.34925,-0.27517 -1.005416,-0.27517 -0.624417,0 -0.963084,0.27517 -0.338666,0.26458 -0.338666,0.71967 0,0.48683 0.306916,0.73025 0.3175,0.24341 1.259417,0.381 1.407583,0.1905 2.053167,0.68791 0.645583,0.48684 0.645583,1.57692 0,1.00542 -0.772583,1.67217 -0.772584,0.66675 -2.010834,0.66675 z"
         style="font-style:normal;font-variant:normal;font-weight:500;font-stretch:normal;font-family:Graphik;-inkscape-font-specification:'Graphik Medium';fill:#164c9c;fill-opacity:1"
         id="path843"
         inkscape:connector-curvature="0" />
      <path
         d="m 67.408817,152.90035 q 0.709083,0 1.11125,-0.48683 0.41275,-0.49742 0.41275,-1.35467 v -0.0741 q 0,-0.85725 -0.41275,-1.34408 -0.402167,-0.49742 -1.11125,-0.49742 -0.719667,0 -1.132417,0.48683 -0.402166,0.48684 -0.402166,1.34409 v 0.0847 q 0,0.85725 0.402166,1.35467 0.41275,0.48683 1.132417,0.48683 z m 2.032,0.21167 q -0.804333,0.78317 -2.042583,0.78317 -1.23825,0 -2.042584,-0.78317 -0.79375,-0.78317 -0.79375,-2.032 v -0.0847 q 0,-1.27 0.804334,-2.06375 0.804333,-0.79375 2.042583,-0.79375 1.227667,0 2.032,0.78317 0.804333,0.78317 0.804333,2.04258 v 0.0847 q 0,1.28058 -0.804333,2.06375 z"
         style="font-style:normal;font-variant:normal;font-weight:500;font-stretch:normal;font-family:Graphik;-inkscape-font-specification:'Graphik Medium';fill:#164c9c;fill-opacity:1"
         id="path845"
         inkscape:connector-curvature="0" />
      <path
         d="m 73.82579,153.89519 q -1.217084,0 -2.010834,-0.75142 -0.783166,-0.762 -0.783166,-2.05317 v -0.0847 q 0,-1.29117 0.804333,-2.07434 0.804333,-0.79375 1.989667,-0.79375 1.016,0 1.7145,0.508 0.709083,0.49742 0.814916,1.56634 h -1.23825 q -0.148166,-1.04775 -1.27,-1.04775 -0.66675,0 -1.090083,0.48683 -0.41275,0.48683 -0.41275,1.3335 v 0.0847 q 0,0.889 0.402167,1.36525 0.41275,0.47625 1.132416,0.47625 0.529167,0 0.899584,-0.30692 0.381,-0.3175 0.433916,-0.87842 h 1.17475 q -0.07408,0.97367 -0.762,1.57692 -0.687916,0.59267 -1.799166,0.59267 z"
         style="font-style:normal;font-variant:normal;font-weight:500;font-stretch:normal;font-family:Graphik;-inkscape-font-specification:'Graphik Medium';fill:#164c9c;fill-opacity:1"
         id="path847"
         inkscape:connector-curvature="0" />
      <path
         d="m 77.511104,153.78935 v -5.53508 h 1.280583 v 5.53508 z m 1.164166,-6.65691 q -0.22225,0.21166 -0.53975,0.21166 -0.3175,0 -0.53975,-0.21166 -0.22225,-0.21167 -0.22225,-0.51859 0,-0.3175 0.22225,-0.52916 0.22225,-0.21167 0.53975,-0.21167 0.3175,0 0.53975,0.21167 0.22225,0.21166 0.22225,0.52916 0,0.30692 -0.22225,0.51859 z"
         style="font-style:normal;font-variant:normal;font-weight:500;font-stretch:normal;font-family:Graphik;-inkscape-font-specification:'Graphik Medium';fill:#164c9c;fill-opacity:1"
         id="path849"
         inkscape:connector-curvature="0" />
      <path
         d="m 81.802481,153.89519 q -0.814916,0 -1.3335,-0.40217 -0.518583,-0.41275 -0.518583,-1.23825 0,-0.91017 0.772583,-1.3335 0.772584,-0.42333 2.06375,-0.42333 h 0.687917 v -0.28575 q 0,-0.5715 -0.232833,-0.83609 -0.22225,-0.27516 -0.772584,-0.27516 -0.963083,0 -1.058333,0.86783 h -1.23825 q 0.07408,-0.92075 0.719667,-1.37583 0.656166,-0.45509 1.651,-0.45509 2.211916,0 2.211916,2.02142 v 3.63008 h -1.259416 v -0.67733 q -0.592667,0.78317 -1.693334,0.78317 z m 0.306917,-0.92075 q 0.60325,0 0.98425,-0.29634 0.381,-0.30691 0.381,-0.8255 v -0.55033 h -0.656167 q -1.598083,0 -1.598083,0.89958 0,0.77259 0.889,0.77259 z"
         style="font-style:normal;font-variant:normal;font-weight:500;font-stretch:normal;font-family:Graphik;-inkscape-font-specification:'Graphik Medium';fill:#164c9c;fill-opacity:1"
         id="path851"
         inkscape:connector-curvature="0" />
      <path
         d="m 86.254756,153.78935 v -8.09625 h 1.280583 v 8.09625 z"
         style="font-style:normal;font-variant:normal;font-weight:500;font-stretch:normal;font-family:Graphik;-inkscape-font-specification:'Graphik Medium';fill:#164c9c;fill-opacity:1"
         id="path853"
         inkscape:connector-curvature="0" />
      <path
         d="m 94.295609,153.89519 q -1.481667,0 -2.2225,-0.65617 -0.73025,-0.65617 -0.814917,-1.79917 h 1.354667 q 0.08467,0.66675 0.4445,1.03717 0.359833,0.35983 1.23825,0.35983 0.635,0 1.026583,-0.3175 0.402167,-0.32808 0.402167,-0.84666 0,-0.52917 -0.328083,-0.77259 -0.328084,-0.24341 -1.248834,-0.39158 -1.407583,-0.1905 -2.042583,-0.67733 -0.624417,-0.49742 -0.624417,-1.53459 0,-0.94191 0.73025,-1.55575 0.73025,-0.61383 1.905,-0.61383 1.227667,0 1.93675,0.56092 0.709084,0.55033 0.814917,1.62983 h -1.291167 q -0.105833,-0.59267 -0.455083,-0.85725 -0.34925,-0.27517 -1.005417,-0.27517 -0.624416,0 -0.963083,0.27517 -0.338667,0.26458 -0.338667,0.71967 0,0.48683 0.306917,0.73025 0.3175,0.24341 1.259417,0.381 1.407583,0.1905 2.053166,0.68791 0.645584,0.48684 0.645584,1.57692 0,1.00542 -0.772584,1.67217 -0.772583,0.66675 -2.010833,0.66675 z"
         style="font-style:normal;font-variant:normal;font-weight:500;font-stretch:normal;font-family:Graphik;-inkscape-font-specification:'Graphik Medium';fill:#164c9c;fill-opacity:1"
         id="path855"
         inkscape:connector-curvature="0" />
      <path
         d="m 100.75955,153.89519 q -1.217087,0 -2.010837,-0.75142 -0.783167,-0.762 -0.783167,-2.05317 v -0.0847 q 0,-1.29117 0.804334,-2.07434 0.804333,-0.79375 1.98967,-0.79375 1.016,0 1.7145,0.508 0.70908,0.49742 0.81491,1.56634 h -1.23825 q -0.14816,-1.04775 -1.27,-1.04775 -0.66675,0 -1.09008,0.48683 -0.41275,0.48683 -0.41275,1.3335 v 0.0847 q 0,0.889 0.402166,1.36525 0.412754,0.47625 1.132414,0.47625 0.52917,0 0.89959,-0.30692 0.381,-0.3175 0.43391,-0.87842 h 1.17475 q -0.0741,0.97367 -0.762,1.57692 -0.68791,0.59267 -1.79916,0.59267 z"
         style="font-style:normal;font-variant:normal;font-weight:500;font-stretch:normal;font-family:Graphik;-inkscape-font-specification:'Graphik Medium';fill:#164c9c;fill-opacity:1"
         id="path857"
         inkscape:connector-curvature="0" />
      <path
         d="m 104.44486,153.78935 v -5.53508 h 1.28058 v 5.53508 z m 1.16417,-6.65691 q -0.22225,0.21166 -0.53975,0.21166 -0.3175,0 -0.53975,-0.21166 -0.22225,-0.21167 -0.22225,-0.51859 0,-0.3175 0.22225,-0.52916 0.22225,-0.21167 0.53975,-0.21167 0.3175,0 0.53975,0.21167 0.22225,0.21166 0.22225,0.52916 0,0.30692 -0.22225,0.51859 z"
         style="font-style:normal;font-variant:normal;font-weight:500;font-stretch:normal;font-family:Graphik;-inkscape-font-specification:'Graphik Medium';fill:#164c9c;fill-opacity:1"
         id="path859"
         inkscape:connector-curvature="0" />
      <path
         d="m 109.72049,153.89519 q -1.23825,0 -2.02142,-0.762 -0.78317,-0.762 -0.78317,-2.05317 v -0.0847 q 0,-1.27 0.77259,-2.06375 0.78316,-0.79375 1.97908,-0.79375 1.12183,0 1.86267,0.6985 0.75141,0.6985 0.75141,2.0955 v 0.37042 h -4.05341 q 0.0318,0.79375 0.42333,1.21708 0.39158,0.42334 1.10067,0.42334 1.12183,0 1.27,-0.84667 h 1.23825 q -0.13759,0.86783 -0.80434,1.3335 -0.66675,0.46567 -1.73566,0.46567 z m -1.47109,-3.45017 h 2.76225 q -0.0953,-1.37583 -1.34408,-1.37583 -0.5715,0 -0.9525,0.37041 -0.37042,0.35984 -0.46567,1.00542 z"
         style="font-style:normal;font-variant:normal;font-weight:500;font-stretch:normal;font-family:Graphik;-inkscape-font-specification:'Graphik Medium';fill:#164c9c;fill-opacity:1"
         id="path861"
         inkscape:connector-curvature="0" />
      <path
         d="m 113.42548,153.78935 v -5.53508 h 1.28058 v 0.87842 q 0.21167,-0.43392 0.67734,-0.70909 0.46566,-0.28575 1.11125,-0.28575 0.87841,0 1.38641,0.53975 0.508,0.52917 0.508,1.62984 v 3.48191 h -1.28058 v -3.3655 q 0,-0.62441 -0.26458,-0.92075 -0.26459,-0.29633 -0.83609,-0.29633 -0.5715,0 -0.94191,0.34925 -0.35984,0.33867 -0.35984,0.97367 v 3.25966 z"
         style="font-style:normal;font-variant:normal;font-weight:500;font-stretch:normal;font-family:Graphik;-inkscape-font-specification:'Graphik Medium';fill:#164c9c;fill-opacity:1"
         id="path863"
         inkscape:connector-curvature="0" />
      <path
         d="m 122.27761,153.89519 q -1.21708,0 -2.01083,-0.75142 -0.78317,-0.762 -0.78317,-2.05317 v -0.0847 q 0,-1.29117 0.80434,-2.07434 0.80433,-0.79375 1.98966,-0.79375 1.016,0 1.7145,0.508 0.70909,0.49742 0.81492,1.56634 h -1.23825 q -0.14817,-1.04775 -1.27,-1.04775 -0.66675,0 -1.09008,0.48683 -0.41275,0.48683 -0.41275,1.3335 v 0.0847 q 0,0.889 0.40216,1.36525 0.41275,0.47625 1.13242,0.47625 0.52917,0 0.89958,-0.30692 0.381,-0.3175 0.43392,-0.87842 h 1.17475 q -0.0741,0.97367 -0.762,1.57692 -0.68792,0.59267 -1.79917,0.59267 z"
         style="font-style:normal;font-variant:normal;font-weight:500;font-stretch:normal;font-family:Graphik;-inkscape-font-specification:'Graphik Medium';fill:#164c9c;fill-opacity:1"
         id="path865"
         inkscape:connector-curvature="0" />
      <path
         d="m 128.36534,153.89519 q -1.23825,0 -2.02141,-0.762 -0.78317,-0.762 -0.78317,-2.05317 v -0.0847 q 0,-1.27 0.77258,-2.06375 0.78317,-0.79375 1.97909,-0.79375 1.12183,0 1.86266,0.6985 0.75142,0.6985 0.75142,2.0955 v 0.37042 h -4.05342 q 0.0317,0.79375 0.42334,1.21708 0.39158,0.42334 1.10066,0.42334 1.12184,0 1.27,-0.84667 h 1.23825 q -0.13758,0.86783 -0.80433,1.3335 -0.66675,0.46567 -1.73567,0.46567 z m -1.47108,-3.45017 h 2.76225 q -0.0952,-1.37583 -1.34408,-1.37583 -0.5715,0 -0.9525,0.37041 -0.37042,0.35984 -0.46567,1.00542 z"
         style="font-style:normal;font-variant:normal;font-weight:500;font-stretch:normal;font-family:Graphik;-inkscape-font-specification:'Graphik Medium';fill:#164c9c;fill-opacity:1"
         id="path867"
         inkscape:connector-curvature="0" />
      <path
         d="m 134.69798,153.78935 v -7.56708 h 1.40758 v 6.44525 h 3.22792 v 1.12183 z"
         style="font-style:normal;font-variant:normal;font-weight:500;font-stretch:normal;font-family:Graphik;-inkscape-font-specification:'Graphik Medium';stroke-width:0.26458332"
         id="path869"
         inkscape:connector-curvature="0" />
      <path
         d="m 141.87116,153.89519 q -0.81492,0 -1.3335,-0.40217 -0.51858,-0.41275 -0.51858,-1.23825 0,-0.91017 0.77258,-1.3335 0.77258,-0.42333 2.06375,-0.42333 h 0.68792 v -0.28575 q 0,-0.5715 -0.23284,-0.83609 -0.22225,-0.27516 -0.77258,-0.27516 -0.96308,0 -1.05833,0.86783 h -1.23825 q 0.0741,-0.92075 0.71966,-1.37583 0.65617,-0.45509 1.651,-0.45509 2.21192,0 2.21192,2.02142 v 3.63008 h -1.25942 v -0.67733 q -0.59266,0.78317 -1.69333,0.78317 z m 0.30692,-0.92075 q 0.60325,0 0.98425,-0.29634 0.381,-0.30691 0.381,-0.8255 v -0.55033 h -0.65617 q -1.59808,0 -1.59808,0.89958 0,0.77259 0.889,0.77259 z"
         style="font-style:normal;font-variant:normal;font-weight:500;font-stretch:normal;font-family:Graphik;-inkscape-font-specification:'Graphik Medium';stroke-width:0.26458332"
         id="path871"
         inkscape:connector-curvature="0" />
      <path
         d="m 149.38202,153.89519 q -0.635,0 -1.11125,-0.27517 -0.46566,-0.27517 -0.6985,-0.71967 v 0.889 h -1.28058 v -8.09625 h 1.28058 v 3.45017 q 0.24342,-0.42333 0.73025,-0.70908 0.49742,-0.29634 1.0795,-0.29634 1.06892,0 1.75684,0.762 0.6985,0.75142 0.6985,2.05317 v 0.0847 q 0,1.31233 -0.68792,2.08491 -0.67733,0.77259 -1.76742,0.77259 z m -0.3175,-1.016 q 0.70909,0 1.0795,-0.46567 0.381,-0.46567 0.381,-1.35467 v -0.0847 q 0,-0.889 -0.41275,-1.35467 -0.40216,-0.47625 -1.05833,-0.47625 -0.68792,0 -1.11125,0.47625 -0.41275,0.46567 -0.41275,1.35467 v 0.0847 q 0,0.89959 0.40217,1.36525 0.41275,0.45509 1.13241,0.45509 z"
         style="font-style:normal;font-variant:normal;font-weight:500;font-stretch:normal;font-family:Graphik;-inkscape-font-specification:'Graphik Medium';stroke-width:0.26458332"
         id="path873"
         inkscape:connector-curvature="0" />
    </g>
  </g>
</svg>
